<?xml version="1.0" standalone="no"?>
<!DOCTYPE svg PUBLIC "-//W3C//DTD SVG 20010904//EN"
 "http://www.w3.org/TR/2001/REC-SVG-20010904/DTD/svg10.dtd">
<svg version="1.0" xmlns="http://www.w3.org/2000/svg"
 width="3853.000000pt" height="3114.000000pt" viewBox="0 0 3853.000000 3114.000000"
 preserveAspectRatio="xMidYMid meet">

<g transform="translate(0.000000,3114.000000) scale(0.100000,-0.100000)"
fill="#000000" stroke="none">
<path d="M10 31116 c0 -36 86 -522 131 -746 335 -1637 993 -3635 1693 -5139
47 -101 85 -185 83 -187 -6 -6 -252 97 -347 145 -201 102 -343 204 -507 365
-62 60 -113 107 -113 105 0 -13 134 -399 210 -609 104 -285 292 -755 419
-1048 552 -1274 1149 -2316 1717 -2999 110 -131 405 -432 502 -512 35 -28 59
-51 54 -51 -24 0 -371 107 -491 151 -168 62 -444 197 -569 278 -51 34 -95 61
-98 61 -7 0 125 -171 250 -324 617 -753 1293 -1369 2032 -1851 l140 -92 12
-119 c16 -156 38 -301 67 -450 l23 -121 -23 -229 c-59 -574 -80 -1044 -72
-1654 6 -448 12 -584 42 -970 166 -2102 821 -4178 1893 -6000 787 -1337 1771
-2519 2955 -3549 59 -51 107 -96 107 -100 1 -61 24 -366 35 -456 88 -701 325
-1369 715 -2016 178 -295 475 -706 490 -678 4 8 50 162 101 342 l94 329 22
-149 c75 -506 281 -1010 605 -1480 97 -141 492 -682 499 -682 3 -1 65 140 139
311 73 172 161 372 195 443 141 295 329 513 555 645 37 22 70 40 73 40 2 0 7
-30 11 -67 4 -37 18 -122 32 -188 88 -419 324 -865 680 -1286 122 -144 495
-559 503 -559 3 0 77 139 164 308 173 338 234 431 363 551 99 93 211 166 365
240 244 118 486 184 1179 326 234 47 521 111 638 140 498 127 870 278 1154
467 l116 78 417 0 416 0 120 -80 c213 -141 449 -249 768 -354 244 -81 535
-152 1021 -251 468 -96 720 -155 892 -211 398 -128 662 -309 833 -569 29 -44
117 -207 196 -362 79 -156 147 -283 151 -283 10 0 474 522 577 649 352 438
578 919 632 1347 7 55 13 101 15 102 6 8 148 -82 216 -136 150 -119 289 -298
394 -507 28 -55 118 -256 199 -447 82 -192 151 -348 154 -348 3 1 41 49 83
108 43 59 155 214 250 344 218 298 318 456 434 683 184 360 292 691 342 1054
l17 124 94 -329 c51 -181 97 -335 101 -343 5 -10 30 15 84 85 697 901 1083
1877 1146 2894 10 160 13 177 33 196 12 12 83 74 157 139 334 290 854 801
1151 1130 1137 1258 2028 2679 2649 4220 814 2022 1147 4189 979 6380 -11 149
-29 346 -39 438 l-19 168 24 122 c29 146 61 371 71 485 l7 83 186 123 c769
508 1451 1145 2088 1949 173 218 164 205 133 186 -255 -161 -448 -255 -715
-351 -120 -43 -416 -130 -422 -124 -2 2 34 35 79 74 115 97 353 342 478 492
709 849 1493 2330 2108 3980 73 196 232 654 232 669 0 3 -48 -42 -107 -100
-156 -153 -255 -228 -441 -333 -112 -63 -422 -197 -422 -182 0 2 27 61 61 132
638 1351 1286 3255 1638 4819 92 408 217 1082 209 1121 -2 10 -69 -34 -192
-126 -1122 -835 -2310 -1467 -3672 -1953 -683 -244 -1249 -412 -2554 -757
-1378 -365 -1984 -548 -2668 -804 -279 -104 -799 -324 -954 -402 l-47 -24
-151 126 -151 126 27 46 c122 214 271 401 498 628 206 205 299 285 581 496
110 83 202 152 204 153 6 7 -236 -66 -389 -117 -475 -156 -978 -377 -1398
-611 -95 -53 -176 -97 -178 -97 -3 0 -49 31 -102 68 -1156 817 -2548 1499
-3918 1921 -1680 517 -3438 719 -5189 596 -2303 -163 -4513 -878 -6465 -2093
-202 -126 -452 -291 -626 -414 -62 -43 -115 -78 -118 -78 -3 0 -65 34 -138 76
-174 99 -592 305 -790 388 -285 121 -577 226 -863 312 -82 25 -157 47 -165 50
-20 7 -25 11 175 -138 313 -233 513 -407 700 -608 154 -165 308 -369 395 -523
l32 -57 -28 -23 c-16 -12 -84 -68 -151 -124 l-122 -101 -198 90 c-506 231
-1089 450 -1703 641 -487 152 -782 235 -1700 478 -1385 367 -1939 531 -2620
774 -1369 489 -2591 1141 -3710 1980 -162 122 -160 120 -160 101z m1460 -1746
c632 -354 1347 -691 2141 -1008 759 -304 1402 -529 2894 -1013 2144 -696 3068
-1032 3904 -1416 1649 -758 2704 -1657 3393 -2893 70 -124 198 -374 198 -384
0 -3 -74 31 -165 74 -305 147 -692 310 -935 395 -153 53 -363 105 -455 112
l-80 6 100 -80 c196 -158 520 -505 800 -857 271 -341 588 -797 802 -1156 350
-587 591 -1127 707 -1580 38 -148 74 -346 64 -355 -3 -3 -84 -38 -179 -79
-281 -118 -452 -197 -834 -386 -287 -143 -1276 -657 -1291 -672 -2 -2 108 -35
244 -73 136 -37 249 -69 251 -71 2 -2 -62 -66 -142 -144 -240 -233 -402 -426
-582 -695 -233 -348 -348 -584 -621 -1270 -189 -477 -266 -639 -395 -836 -294
-448 -713 -695 -1369 -808 -347 -60 -689 -71 -949 -32 -625 94 -1264 417
-1891 954 -135 116 -360 326 -360 336 0 3 29 19 65 35 209 91 411 280 741 696
322 406 487 563 710 677 182 93 307 123 539 132 l170 6 -130 32 c-440 109
-837 74 -1221 -106 -107 -51 -258 -139 -363 -213 -30 -21 -58 -38 -63 -38 -15
0 -141 202 -208 335 -71 140 -128 296 -161 440 -27 120 -40 445 -17 445 8 0
54 -14 104 -30 178 -61 802 -236 810 -227 1 1 -50 45 -114 97 -386 316 -726
624 -1111 1005 -497 492 -846 877 -1254 1385 -1844 2293 -3105 5126 -3791
8515 -52 257 -156 820 -156 844 0 14 -11 19 200 -99z m35745 -167 c-577 -3221
-1666 -5971 -3266 -8249 -861 -1227 -1925 -2366 -3089 -3307 -23 -19 -28 -27
-15 -23 11 3 76 19 145 36 174 43 448 122 623 180 l147 48 0 -142 c0 -267 -55
-484 -190 -751 -78 -156 -196 -339 -213 -332 -7 3 -64 39 -127 82 -479 319
-969 407 -1515 272 l-130 -32 170 -6 c170 -6 245 -19 375 -61 95 -30 250 -112
344 -181 105 -77 295 -270 417 -422 52 -66 149 -187 215 -270 144 -181 291
-336 399 -420 87 -67 220 -148 272 -166 18 -6 33 -14 33 -19 0 -4 -55 -60
-122 -123 -734 -688 -1438 -1070 -2163 -1173 -380 -54 -1005 18 -1400 161
-317 114 -583 296 -766 523 -179 221 -288 435 -529 1037 -259 644 -379 891
-595 1216 -182 273 -347 472 -590 707 -81 79 -146 144 -144 146 2 2 115 34
251 71 203 56 244 71 230 80 -42 28 -841 446 -1167 610 -374 188 -684 333
-962 450 -145 60 -163 71 -163 91 0 49 53 295 96 441 244 842 908 1971 1715
2914 164 192 441 472 564 572 l100 80 -80 -6 c-242 -18 -788 -217 -1390 -507
-91 -43 -165 -76 -165 -73 0 18 207 402 297 553 732 1220 1846 2104 3608 2862
792 341 1655 648 3560 1267 893 290 1448 476 1870 626 1304 464 2305 905 3220
1419 94 52 171 91 173 86 2 -4 -18 -125 -43 -267z m-17374 -403 c2216 -109
4274 -757 6129 -1928 74 -47 141 -91 149 -98 12 -11 0 -28 -74 -106 -359 -380
-664 -816 -894 -1275 -73 -147 -170 -369 -211 -483 -13 -36 -27 -69 -33 -75
-12 -12 -2 350 13 480 37 319 115 627 241 946 67 172 227 490 327 654 44 72
78 132 77 133 -6 7 -290 -160 -430 -252 -360 -238 -631 -497 -872 -834 -337
-472 -636 -1200 -893 -2180 -18 -67 -34 -121 -35 -120 -1 2 2 104 7 228 13
293 3 880 -17 1080 -28 284 -69 494 -133 681 -16 46 -36 97 -44 114 l-16 30
-12 -45 c-7 -25 -54 -171 -105 -325 -341 -1027 -732 -1891 -1368 -3020 -123
-220 -490 -852 -739 -1274 l-86 -145 -137 -33 c-76 -18 -140 -31 -143 -29 -13
13 -76 248 -97 361 -38 206 -48 370 -42 655 6 262 14 351 68 813 18 147 29
270 26 273 -3 3 -54 -10 -114 -29 -762 -246 -1506 -800 -2044 -1522 -111 -149
-235 -339 -304 -468 -41 -76 -51 -88 -69 -83 -11 3 -74 18 -139 33 l-118 28
-71 120 c-916 1548 -1324 2312 -1676 3135 -192 451 -408 1038 -537 1464 -26
86 -28 89 -41 65 -29 -52 -95 -274 -123 -416 -72 -358 -96 -864 -72 -1483 5
-113 8 -206 7 -207 -2 -2 -26 86 -55 195 -339 1259 -717 2031 -1250 2545 -136
131 -283 249 -456 366 -122 83 -419 262 -461 278 -19 7 -19 6 1 -22 128 -195
304 -537 398 -775 164 -412 241 -787 254 -1220 6 -207 1 -233 -27 -145 -7 22
-41 108 -76 191 -236 568 -582 1102 -1020 1571 -57 61 -104 114 -104 116 0 8
267 178 445 284 1171 700 2454 1203 3801 1492 627 134 1339 226 2009 260 237
12 952 12 1186 1z m-55 -7363 c3 -494 78 -840 272 -1257 40 -85 148 -289 161
-302 3 -4 78 17 166 48 296 103 495 154 725 188 149 22 431 36 593 29 l138 -6
-183 -91 c-327 -163 -524 -301 -754 -531 -83 -82 -192 -201 -243 -264 -153
-189 -344 -442 -337 -448 3 -3 124 5 268 18 333 30 832 33 1073 6 748 -84
1438 -299 2361 -734 101 -47 184 -89 184 -92 0 -3 -19 -17 -43 -30 -100 -57
-448 -280 -603 -388 -505 -348 -912 -683 -1328 -1093 -594 -585 -1056 -1186
-1441 -1875 -90 -160 -269 -522 -334 -672 l-44 -102 143 -268 c446 -836 740
-1321 1047 -1731 504 -672 1015 -1101 1567 -1317 124 -49 337 -110 417 -121
27 -4 51 -10 54 -14 5 -8 -134 -23 -365 -42 -191 -15 -839 -14 -1110 1 -118 7
-377 23 -575 37 -198 13 -439 26 -535 29 l-175 5 100 -20 c55 -11 271 -54 480
-96 830 -164 1415 -306 2000 -485 1435 -441 2477 -1069 3129 -1886 568 -711
874 -1552 937 -2575 26 -420 -41 -794 -210 -1166 -44 -99 -160 -312 -180 -335
-4 -4 -27 39 -51 95 -252 598 -558 933 -1102 1210 -110 56 -562 266 -566 263
-1 -1 77 -139 174 -306 258 -445 351 -638 428 -894 74 -244 106 -455 106 -705
0 -382 -85 -727 -271 -1099 -43 -86 -89 -173 -102 -194 l-23 -39 -59 93 c-309
487 -691 723 -1385 853 -199 38 -250 44 -250 34 0 -6 14 -89 32 -186 28 -159
32 -197 32 -372 0 -165 -4 -211 -23 -300 -49 -228 -144 -454 -280 -663 -87
-133 -173 -248 -182 -245 -3 2 -34 38 -68 80 -173 215 -427 400 -726 528 -262
113 -544 190 -1155 315 -732 150 -1044 244 -1383 417 -133 68 -317 186 -417
268 -76 62 -239 219 -281 271 l-29 37 78 27 c147 52 662 320 987 513 940 559
1463 1099 1620 1676 31 114 55 277 55 378 l0 78 -137 -107 c-703 -547 -1203
-876 -1503 -989 -68 -25 -87 -28 -205 -29 -153 0 -212 17 -309 90 -227 170
-339 555 -255 882 55 215 206 342 429 360 222 17 413 -123 519 -383 89 -216
123 -270 184 -293 120 -46 361 73 773 380 199 148 285 255 341 424 24 72 27
95 27 220 0 123 -4 150 -27 228 -160 523 -756 936 -1620 1122 -740 159 -1715
163 -2462 9 -637 -132 -1141 -386 -1431 -722 -319 -370 -350 -812 -79 -1119
76 -87 413 -332 614 -448 97 -56 229 -105 284 -105 96 0 143 49 217 230 67
166 111 240 185 315 154 154 360 187 563 89 69 -34 152 -116 186 -183 158
-311 49 -824 -214 -1010 -103 -73 -147 -86 -300 -85 -127 0 -140 2 -218 32
-293 111 -800 445 -1498 988 l-137 106 6 -118 c34 -659 456 -1224 1357 -1819
376 -248 1077 -630 1302 -710 l78 -27 -19 -27 c-30 -41 -229 -232 -306 -293
-245 -195 -576 -360 -942 -472 -197 -60 -422 -115 -743 -181 -534 -109 -692
-146 -915 -212 -467 -138 -811 -347 -1054 -638 -41 -49 -78 -90 -82 -90 -11 0
-97 116 -172 231 -283 432 -368 830 -282 1314 14 80 28 164 31 186 l6 41 -58
-9 c-459 -69 -812 -182 -1046 -333 -205 -133 -396 -334 -545 -573 l-46 -73
-40 68 c-188 324 -312 693 -348 1034 -17 158 -7 461 20 614 45 254 138 530
266 785 35 69 142 262 239 429 97 167 176 305 174 306 -4 3 -452 -206 -566
-263 -537 -273 -835 -596 -1087 -1177 -31 -71 -58 -131 -60 -133 -2 -3 -41 63
-117 198 -117 207 -224 535 -265 809 -42 286 -8 812 82 1260 180 893 619 1681
1270 2274 738 673 1723 1163 3110 1546 483 133 1039 259 1845 417 l325 64
-175 -5 c-96 -3 -337 -16 -535 -29 -938 -64 -1510 -68 -1960 -12 -55 7 -93 15
-85 18 8 3 62 15 120 27 316 66 695 245 992 469 509 383 981 957 1473 1792
167 283 635 1139 635 1162 0 17 -116 270 -216 469 -636 1272 -1622 2373 -2934
3277 -155 107 -607 395 -635 405 -5 3 -8 7 -5 10 9 9 398 192 560 262 585 254
1157 437 1610 514 290 50 384 56 825 56 321 0 475 -4 653 -19 128 -10 235 -16
238 -13 7 7 -206 288 -350 462 -54 66 -162 183 -240 260 -226 225 -437 372
-759 530 l-169 82 139 6 c166 7 440 -6 589 -28 234 -35 431 -86 728 -189 88
-30 161 -54 162 -53 2 1 66 128 142 282 146 291 265 499 379 663 211 303 465
557 734 734 80 53 208 128 219 128 3 0 6 -109 6 -243z m-12631 -7593 c375
-283 794 -493 1220 -612 477 -134 1009 -154 1545 -56 269 49 586 139 876 249
63 24 114 40 114 36 0 -3 -14 -53 -30 -111 -245 -847 -429 -1930 -481 -2823
-13 -229 -7 -883 11 -1052 64 -629 210 -1098 436 -1405 24 -33 44 -65 44 -70
0 -6 -26 -50 -58 -98 -89 -133 -184 -297 -263 -454 l-71 -141 -115 114 c-255
253 -584 618 -840 933 -1233 1510 -2105 3307 -2522 5201 -41 184 -91 437 -91
456 0 6 33 -16 73 -48 39 -33 108 -86 152 -119z m24396 -91 c-474 -2342 -1642
-4537 -3327 -6253 l-192 -195 -75 151 c-87 175 -152 287 -249 431 -37 56 -68
107 -68 112 0 5 24 43 53 83 245 344 393 868 438 1552 15 232 6 896 -15 1146
-48 549 -116 1019 -226 1570 -74 369 -177 798 -251 1039 -10 35 -19 67 -19 71
0 4 51 -11 114 -35 394 -150 775 -246 1156 -291 198 -24 563 -24 760 0 632 75
1209 317 1760 737 63 48 131 101 150 117 19 17 36 26 38 22 2 -5 -19 -120 -47
-257z"/>
</g>
</svg>
